<?xml version="1.0" standalone="no"?><!DOCTYPE svg PUBLIC "-//W3C//DTD SVG 1.1//EN" "http://www.w3.org/Graphics/SVG/1.1/DTD/svg11.dtd"><svg class="icon" width="128px" height="128.00px" viewBox="0 0 1024 1024" version="1.1" xmlns="http://www.w3.org/2000/svg"><path d="M807.4 426.2c0-150.1-121.7-271.8-271.8-271.8S263.8 276.1 263.8 426.2c0 99.2 118.8 303.1 199.3 421.8H608c80.6-118.7 199.4-322.6 199.4-421.8z" fill="#5E9EFC" /><path d="M901.9 838.3l-78.8-157.6c-9.7-19.5-33.4-27.4-52.9-17.6-19.5 9.7-27.4 33.4-17.6 52.9l66 132H608.1c-4.5 6.6-8.9 13-13.1 19.1-28.8 41.3-89.9 41.3-118.7 0-4.2-6.1-8.6-12.5-13.1-19.1H252.6l66.1-132.1c9.7-19.5 1.8-43.1-17.6-52.9-19.5-9.7-43.1-1.8-52.9 17.6l-78.8 157.6c-2.7 5.5-4.2 11.5-4.2 17.6 0 39.1 31.8 70.9 70.9 70.9h599c39.1 0 70.9-31.8 70.9-70.9 0-6-1.4-12-4.1-17.5z" fill="#12F4FF" /><path d="M594.9 867.1c4.2-6.1 8.6-12.5 13.1-19.1H463.1c4.5 6.6 8.9 13 13.1 19.1 28.8 41.3 90 41.3 118.7 0z" fill="#0797FC" /><path d="M535.6 548.5c-69.5 0-126.1-56.6-126.1-126.1s56.6-126.1 126.1-126.1 126.1 56.6 126.1 126.1-56.6 126.1-126.1 126.1z m0-189.1c-34.8 0-63.1 28.3-63.1 63.1s28.3 63.1 63.1 63.1 63.1-28.3 63.1-63.1-28.3-63.1-63.1-63.1z" fill="#BFD8FE" /></svg>